HIERARCHY
ROOT Hips
{
	OFFSET 0.00000 0.00000 0.00000
	CHANNELS 6 Xposition Yposition Zposition Yrotation Zrotation Xrotation 
	JOINT Lumbar
	{
		OFFSET 0 0 0
		CHANNELS 3 Zrotation Xrotation Yrotation
		JOINT Neck
		{
			OFFSET 0.00 0.2701 0.00
			CHANNELS 3 Zrotation Xrotation Yrotation
			End Site
			{
				OFFSET 0.00 0.1379 0.00
			}
		}
		JOINT RightShoulder
		{
			OFFSET 0.0119 0.2289 0.1181
			CHANNELS 3 Zrotation Xrotation Yrotation
			JOINT RightElbow
			{
				OFFSET 0.00 -0.1475 0.00
				CHANNELS 2 Zrotation Yrotation
				JOINT RightWrist
				{
					OFFSET 0.00 -0.1605 0.00
					CHANNELS 2 Zrotation Xrotation
					End Site
					{
						OFFSET 0.0040 -0.1068 0.0006
					}
				}
			}
		}
		JOINT LeftShoulder
		{
			OFFSET 0.0119 0.2289 -0.1181
			CHANNELS 3 Zrotation Xrotation Yrotation
			JOINT LeftElbow
			{
				OFFSET 0.00 -0.1475 0.00
				CHANNELS 2 Zrotation Yrotation
				JOINT LeftWrist
				{
					OFFSET 0.00 -0.1605 0.00
					CHANNELS 2 Zrotation Xrotation
					End Site
					{
						OFFSET 0.0040 -0.1068 -0.0006
					}
				}
			}
		}
	}
	JOINT RightHip
	{
		OFFSET 0.0316 -0.0424 0.0458
		CHANNELS 3 Zrotation Xrotation Yrotation
		JOINT RightKnee
		{
			OFFSET 0.00 -0.2438 0.00
			CHANNELS 1 Zrotation
			JOINT RightAnkle
			{
				OFFSET 0.00 -0.2449 0.00
				CHANNELS 3 Zrotation Xrotation Yrotation
				End Site
				{
					OFFSET 0.1237 -0.0542 0.0051
				}
			}
		}
	}
	JOINT LeftHip
	{
		OFFSET 0.0316 -0.0424 -0.0458
		CHANNELS 3 Zrotation Xrotation Yrotation
		JOINT LeftKnee
		{
			OFFSET 0.00 -0.2438 0.00
			CHANNELS 1 Zrotation
			JOINT LeftAnkle
			{
				OFFSET 0.00 -0.2449 0.00
				CHANNELS 3 Zrotation Xrotation Yrotation
				End Site
				{
					OFFSET 0.1237 -0.0542 -0.0051
				}
			}
		}
	}
}
MOTION
Frames: 14
Frame Time: 0.02
0.22234 0.57691 0.09303 841.27493 0 -6.28848 -24.29947 9.60628 -2.31437 -11.08008 5.58929 -0.42703 36.24982 -16.41367 17.01269 15.66063 78.62552 -6.22557 -4.64863 35.53883 5.41041 -5.59474 11.13474 -80.55269 -10.14877 4.63972 10.49338 10.49648 8.21102 -18.26998 -1.53645 -4.47407 -12.68596 11.91589 4.59972 5.38803 -23.74644 7.8954 7.7889 11.17855
0.22301 0.57667 0.09583 840.32528 0 -6.45352 -25.90532 9.73756 -2.00314 -11.20957 5.54313 -0.19882 36.90209 -16.21344 17.507 15.64792 78.81069 -6.21774 -4.70676 36.18392 5.06785 -6.62693 11.39331 -80.76234 -10.17745 4.80767 10.42524 10.54709 8.92414 -17.54559 -1.90775 -4.34635 -12.34004 12.25509 4.75285 5.67322 -24.05741 7.85484 7.80005 11.88143
0.22383 0.57635 0.0985 839.43105 0 -6.62969 -27.55936 9.85017 -1.71221 -11.31809 5.52857 0.06927 37.5546 -16.04384 17.79241 15.54246 78.9744 -6.19449 -4.70515 36.78486 4.63128 -7.65202 11.63774 -81.08555 -10.17873 4.99303 10.43147 10.66353 10.767 -16.95133 -2.07027 -4.26463 -11.81545 12.64803 4.92024 5.82243 -24.45152 7.83213 7.77807 12.67357
0.22458 0.57607 0.10122 838.52067 0 -6.79835 -29.19475 9.96952 -1.41914 -11.4235 5.50651 0.3134 38.20011 -15.86358 18.17706 15.48184 79.14548 -6.18058 -4.73177 37.39129 4.2349 -8.66414 11.88753 -81.35475 -10.19086 5.17391 10.40375 10.74438 11.99411 -16.2999 -2.32235 -4.16211 -11.38112 13.0149 5.08032 6.03747 -24.80446 7.80307 7.76814 13.41328
0.22534 0.5758 0.10398 837.57486 0 -6.97832 -30.81746 10.09703 -1.09452 -11.58383 5.45841 0.58268 38.87383 -15.67344 18.54026 15.40708 79.32608 -6.15692 -4.75298 38.05786 3.84329 -9.7624 12.14294 -81.62594 -10.20639 5.34004 10.36997 10.84754 13.64135 -15.62742 -2.6011 -4.04944 -10.88877 13.39028 5.2453 6.23351 -25.17306 7.76646 7.76916 14.20317
0.22611 0.57548 0.10662 836.71438 0 -7.13635 -32.47752 10.20169 -0.84179 -11.62213 5.46947 0.81011 39.48714 -15.50919 18.89906 15.34122 79.48231 -6.14966 -4.77161 38.5886 3.42275 -10.67352 12.38316 -81.92209 -10.2099 5.54025 10.36951 10.92049 14.69418 -15.03574 -2.77448 -3.97196 -10.48146 13.75947 5.40274 6.43862 -25.52789 7.74978 7.74058 14.90868
0.22688 0.57508 0.10897 836.08373 0 -7.23929 -34.22941 10.2617 -0.77414 -11.35719 5.65402 0.89774 39.9626 -15.41543 19.30557 15.31695 79.57185 -6.19393 -4.79757 38.76655 2.93154 -11.0603 12.58017 -82.2712 -10.18292 5.84064 10.43691 10.8942 13.73327 -14.62109 -2.69074 -3.98819 -10.36503 14.10602 5.5381 6.68913 -25.82883 7.78471 7.63334 15.37187
0.22766 0.57465 0.11119 835.53557 0 -7.31827 -36.01636 10.29702 -0.7801 -10.96729 5.89344 0.94509 40.37488 -15.3454 19.71365 15.30572 79.63824 -6.25475 -4.82306 38.81031 2.41729 -11.25854 12.76244 -82.64026 -10.14557 6.17262 10.53714 10.8355 12.15374 -14.28753 -2.51043 -4.03837 -10.34116 14.44285 5.66477 6.95588 -26.11201 7.83898 7.49857 15.7449
0.22844 0.57423 0.11345 834.94394 0 -7.40271 -37.78759 10.33436 -0.75773 -10.61295 6.09592 1.0191 40.79423 -15.25921 20.11609 15.29325 79.71861 -6.30647 -4.84916 38.90469 1.92383 -11.54594 12.95512 -82.99425 -10.11652 6.48399 10.62727 10.79156 10.9205 -13.92781 -2.38493 -4.06925 -10.26963 14.77914 5.79382 7.22394 -26.40036 7.8837 7.37987 16.15113
0.22924 0.5738 0.11578 834.3785 0 -7.51016 -39.56223 10.40911 -0.71341 -10.33777 6.35045 1.05605 41.29431 -15.19505 20.5327 15.25984 79.78462 -6.36452 -4.87193 39.02965 1.38514 -11.81684 13.13415 -83.37891 -10.07294 6.82378 10.70002 10.74942 9.45062 -13.52731 -2.20659 -4.11749 -10.21456 15.13863 5.93012 7.45105 -26.70417 7.93198 7.24499 16.5932
0.22997 0.57339 0.11793 833.77866 0 -7.56424 -41.33418 10.4013 -0.73331 -9.8805 6.50885 1.16414 41.62453 -15.09247 20.92201 15.27171 79.87404 -6.41325 -4.90175 39.07416 0.93426 -12.07979 13.33515 -83.70105 -10.05548 7.10984 10.8152 10.69544 8.31316 -13.22931 -2.11751 -4.13757 -10.15027 15.44631 6.04897 7.76847 -26.97009 7.97752 7.13768 16.93815
0.23052 0.573 0.11962 833.05201 0 -7.47305 -43.11625 10.16258 -0.89917 -8.85299 6.39044 1.4443 41.39304 -14.86173 21.24587 15.42856 80.04519 -6.43454 -4.95591 38.81155 0.74964 -12.35593 13.62803 -83.86286 -10.13041 7.25367 11.04432 10.61238 8.22944 -13.19437 -2.30457 -4.06751 -10.03358 15.61644 6.12226 8.33772 -27.13797 8.00797 7.11363 17.03551
0.23099 0.57262 0.12113 832.28957 0 -7.3295 -44.88822 9.8431 -1.1278 -7.66927 6.17248 1.80395 41.01695 -14.59653 21.54239 15.62666 80.23882 -6.4455 -5.0163 38.49922 0.65054 -12.63992 13.93895 -83.95799 -10.22884 7.33851 11.31351 10.51888 8.49843 -13.25884 -2.58491 -3.96842 -9.906 15.7336 6.17801 8.99703 -27.26714 8.03535 7.11835 17.03801
0.23147 0.57225 0.12271 831.55117 0 -7.21246 -46.64876 9.56691 -1.33857 -6.61598 5.99903 2.14906 40.77293 -14.35489 21.84436 15.79121 80.41456 -6.45974 -5.07143 38.28156 0.50183 -12.91825 14.22291 -84.07097 -10.30499 7.44261 11.56115 10.43285 8.61093 -13.27774 -2.81933 -3.88521 -9.78748 15.87309 6.24152 9.61134 -27.41254 8.06598 7.10983 17.08455
